<?xml version="1.0" standalone="no"?>
<!DOCTYPE svg PUBLIC "-//W3C//DTD SVG 1.1//EN" "http://www.w3.org/Graphics/SVG/1.1/DTD/svg11.dtd">
<svg xmlns="http://www.w3.org/2000/svg">
<metadata>https://www.graodegente.com.br/</metadata>
<defs>
<font id="grao-icon" horiz-adv-x="1000" >
<font-face font-family="grao-icon" font-weight="400" font-stretch="normal" units-per-em="1000" ascent="850" descent="-150" />
<missing-glyph horiz-adv-x="1000" />
<glyph glyph-name="share" unicode="&#x21;" d="M674 191q-19 8-151 61l-151 63q7 36 0 72l302 125q25-33 62-50t77-17q78 2 131 53t56 128q-2 79-53 132t-130 56q-77-2-130-53t-56-130q0-14 3-28t7-24l-298-124q-11 14-25 28t-28 24q-67 39-140 26t-119-78q-42-68-27-141t80-118q67-43 140-28t119 80l298-125q-18-51-3-103t55-89q61-50 133-44t121 64q50 60 45 132t-63 122-130 44-125-58v0z m143 556q49-1 82-34t34-82q-1-48-34-78t-82-32q-47 2-80 35t-34 80q1 48 34 79t80 32v0z m-632-508q-48 1-81 33t-35 82q2 48 35 81t81 33q48-1 81-33t34-81q-1-49-34-82t-81-33v0z m632-284q-47 1-80 32t-34 79v0q1 48 34 80t80 35q49-2 82-35t34-80q-4-45-36-77t-80-34v0z" horiz-adv-x="1000" />

<glyph glyph-name="like" unicode="&#x22;" d="M1000 385q0 24-10 45t-30 35l-26 13h-286v119q0 43-8 86t-23 81q-14 37-46 58t-69 17q-17 0-30-6t-27-16q-10-13-19-26t-12-27q-3-19-6-38t-3-36q0-11-2-23t-2-22-1-29-3-36q-6-40-21-78t-41-68l-9-9q-4 10-12 14t-19 4h-264q-13 0-22-9t-9-22v-515q0-15 9-25t26-10h265q14 0 24 9t11 26v13q17-13 38-21t41-15q63-6 124-9t123 1q29 0 53 2t44 2h35q7 0 11 3t7 6q23 20 42 43t33 54q5 13 4 26 20 20 32 46t17 56v39q22 23 33 52t10 58q1 20-4 40 3 3 4 4t0 5q10 20 14 40t4 43v0z m-735-458h-100-99v449h199v-449 0z m660 410h-83-84q-14 0-25-9t-10-26q0-13 9-24t26-11h154v-19q0-39-26-65h-119q-14 0-25-9t-11-26q0-14 10-25t26-10h101v-14q0-17-7-32t-19-26h-80q-14 0-24-9t-11-26q0-13 9-24t26-11h49q-14-25-40-44l-27-4q-16-1-41-3t-51-2q-59-3-117 0t-116 9q-27 7-50 21t-39 37v356l5 14q13 7 23 16t21 19q33 39 54 86t25 99q3 20 4 36t1 26 2 22 2 22q1 32 9 66 0 6 3 12t6 10 9 4 13 5q60-5 76-118t7-164q-6-34 0-67 4-6 10-7t12-2h291q7-1 13-8 14-8 14-22 8-33-5-53v0z" horiz-adv-x="1000" />

<glyph glyph-name="grid-one" unicode="&#x23;" d="M122 101v557h814v-557h-814z m-32-64h878 32v32 621 31h-32-878-32v-31-621-32h32z m-32 749v64h942v-64h-942z m0-900v65h942v-65h-942z" horiz-adv-x="1000" />

<glyph glyph-name="grid-2" unicode="&#x24;" d="M32 850h-32v-32-278-33h32 279 32v33 278 32h-32-279z m33-64h213v-214h-213v214z m-33-236h-32v-32-278-33h32 279 32v33 278 32h-32-279z m33-64h213v-214h-213v214z m-33-236h-32v-32-278-32h32 279 32v32 278 32h-32-279z m33-64h213v-214h-213v214z m267 664h-32v-32-278-33h32 278 33v33 278 32h-33-278z m32-64h214v-214h-214v214z m-32-236h-32v-32-278-33h32 278 33v33 278 32h-33-278z m32-64h214v-214h-214v214z m-32-236h-32v-32-278-32h32 278 33v32 278 32h-33-278z m32-64h214v-214h-214v214z m268 664h-32v-32-278-33h32 278 32v33 278 32h-32-278z m32-64h214v-214h-214v214z m-32-236h-32v-32-278-33h32 278 32v33 278 32h-32-278z m32-64h214v-214h-214v214z m-32-236h-32v-32-278-32h32 278 32v32 278 32h-32-278z m32-64h214v-214h-214v214z" horiz-adv-x="1000" />

<glyph glyph-name="tel" unicode="&#x30;" d="M314 538l36-37 36-36v0 0 0l-73 73h1v0z m72-73l-36 36-36 37 72-73q-8-9-8-18t8-18l194-194q8-8 18-8t18 8l4 4q48 45 112 48t116-38l100-82q49-42 52-100t-42-106l-14-13q-84-80-204-95t-220 43q-2-2-75 43t-192 162q-117 121-163 193t-43 75q-59 99-44 220t96 204l15 15q47 45 104 42t99-54l81-102q40-52 36-116t-48-113v0z m-72 73q16 18 18 45t-14 47l-81 103q-11 14-25 15t-25-12l-16-15q-56-58-66-144t29-155l4-6 4-7q4-12 34-58 53-80 149-177t177-150q46-30 58-34l6-3 6-3q71-40 156-30t144 66l14 15q13 12 12 27t-14 26l-101 83q-20 15-46 14t-45-19l-3-3q-40-38-91-38t-90 38l-194 194q-38 39-38 90t38 91v0z" horiz-adv-x="1000" />

<glyph glyph-name="logo-horizontal" unicode="&#x31;" d="M275 320q0-7-2-13t-8-11-12-7-14-3q-2 0-2 2t4 2 7 3 6 6 4 9 2 12v12q-9-5-21-5-8 0-14 2t-11 7-8 12-3 13 3 14 8 11 11 8 13 2 13-1 10-5q0 2 2 4t5 2 5-2 2-6v-68 0z m-14 63q-4 4-9 6t-12 2h-1q-4 0-8-2t-6-7-4-9-2-12 2-11 4-10 6-6 8-3h1q6 0 11 2t9 5v45h1v0z m25 5q0 2 1 3t2 3 5 2 5-2 2-4q5 3 10 4t10 2h2 3t2-2 0-3h-1-6q-5 0-8-3t-7-7-4-9-1-10v-27q0-1-1-2t-2-3-5-2-5 2-2 5v53 0 0z m72 8q6 1 12-1t9-5q1 2 3 4t5 2 5-2 2-6v-54q0-3-2-4t-5-2-5 1-3 4q-9-5-21-5-7-1-14 2t-11 7-8 12-3 13 3 14 8 11 12 7 13 2v0z m-24 15q2 4 5 6t8 3 8 1 8-4q6-2 13-2t9 4l1 1q2 0 2-2v-1 0q-3-3-6-6t-7-3-8-1-9 3q-6 4-12 3t-9-4h-2t-1 1v1 0z m45-28q-4 4-9 6t-12 2v0q-3 0-7-2t-7-7-5-9-1-12 2-11 4-10 7-6 7-3h1q6 0 11 2t9 5v45 0z m58 13q7 1 14-2t11-8 8-11 3-14-3-13-8-12-11-7-14-2-15 2-11 7-7 12-3 13 2 14 8 11 11 8 15 2v0z m0-5q-4 0-8-2t-7-7-4-9-2-12 2-11 4-10 7-6 8-3 8 3 6 6 5 10 1 11-2 12-4 9-6 7-8 2v0z m94 5q6 1 11-1t10-5v23q0 2 2 4t5 2 6-2 2-4v-79q0-3-2-5t-5-2-5 2-3 3q-9-5-21-5-8 0-14 3t-11 7-8 11-3 14 3 13 8 11 11 8 14 2v0z m21-13q-4 4-9 6t-12 2v0q-5 0-8-2t-6-7-5-9-1-12 2-11 4-10 6-6 8-3h1q6 0 11 2t9 5v45 0 0z m57-56q-7 0-14 3t-11 7-8 11-3 14 3 13 8 11 11 8 14 3 14-3 11-8 8-11 3-13v-3q1-1 0-2h-51q-2 0-2 2t2 3h36q0 6-2 11t-4 10-7 7-8 2-7-2-7-7-5-10-1-11 2-11 4-10 7-7 7-3v0q7 0 13 3t9 6l2 1q2 0 2-2v-3q-6-4-12-6t-14-3v0z m128-7q0-7-2-13t-7-11-12-7-14-3q-3 0-3 2t4 2 7 3 6 6 5 9 2 12v12q-9-5-22-5-7 0-13 2t-12 7-7 12-3 13 3 14 7 11 12 8 13 2 11-1 11-5q0 2 2 4t5 2 5-2 2-6v-68 0 0z m-14 63q-4 4-10 6t-11 2v0q-5 0-8-2t-6-7-5-9-1-12 2-11 4-10 6-6 8-3h1q6 0 11 2t9 5v45 0 0z m58-56q-7 0-13 3t-12 7-7 11-3 14 2 13 8 11 12 8 14 3 13-3 12-8 8-11 2-13v-3-2h-50q-2 0-2 2t2 3h36q0 6-2 11t-5 10-6 7-8 2-8-2-6-7-5-10-1-11 2-11 4-10 6-7 8-3v0q6 0 12 3t10 6l2 1q2 0 2-2t-1-3q-5-4-12-6t-14-3v0z m73 69q6 0 12-2t10-7 6-9 2-11v-32q0-3-2-5t-5-2-5 2-3 5v32q0 5-1 9t-3 8-5 5-6 2q-8 0-15-5v-51q-1-6-7-7h-3q-2 0-4 2t-3 4v54q0 4 2 6t5 1 5 0 3-4q10 5 17 5v0z m39 17q0 2 2 4t5 2 6-2 2-4v-19h16q2 0 2-2t-2-3h-16v-27q0-7 2-12t5-9 5-6 7-3 4-2-3-2q-7 0-13 2t-11 7-7 12-4 13v51 0 0z m71-86q-8 0-14 3t-11 7-8 11-3 14 3 13 8 11 11 8 14 3 14-3 11-8 8-11 3-13v-3-2h-51q-3 0-3 2t3 3h35q1 6-1 11t-4 10-6 7-9 2-8-2-6-7-4-10-2-11 2-11 4-10 6-7 9-3v0q6 0 11 3t10 6l1 1q3 0 3-2t-1-3q-5-4-11-6t-14-3v0z m-804 49q0 4-1 8-1 9-6 16t-12 13-16 6q-4 1-8 1h-8t-9-1-8-3q-8-2-14-8t-11-13-6-15l-1-7v-8q1-8 3-15t7-14 10-9q1-1 1 0 5 4 10 9t7 13 4 16v8q0 3-1 7l-2 4q-5-6-11-11v-2q1-3 1-6 0-6-2-12t-6-11l-1-2-1 2q-3 5-5 11t-2 12q0 3 1 6l1 5q4 12 14 19 5 4 10 6t11 2l12-1q6-1 11-4t9-6 6-11 2-12-1-13q-4-13-13-24v-1h1q12 9 19 23 3 7 4 15 2 4 1 7v0z m-84-67q-2 3-4 6t-6 6l-12 10q-12 7-23 15-6 4-8 8t-5 10-1 11 3 12 6 9 9 6q10 4 23 0l6-2q5 7 12 13-7 3-14 5t-17 2-17-3-15-10-9-14-4-16v-8q1-5 2-9 3-8 8-15t13-11q12-8 25-14 6-4 11-8l5-4q2-2 4-5 5-4 8-10 1-3 2-6l1-6q0-1 1-1t1 1v6t-1 7q0 8-4 15v0z" horiz-adv-x="1000" />

<glyph glyph-name="alert" unicode="&#x41;" d="M500 850q-212-6-353-147t-147-353q6-212 147-353t353-147q212 6 353 147t147 353q-6 212-147 353t-353 147v0z m-20-200h22 23q22-1 36-16t14-34l-9-279q-1-20-15-34t-34-16h-30q-19 0-34 14t-15 36l-9 279q1 20 14 34t37 16v0z m20-579q-38 0-59 18t-20 53 20 52 59 18 59-18 20-52q3-32-17-51t-62-20v0z" horiz-adv-x="1000" />

<glyph glyph-name="blog" unicode="&#x42;" d="M750 850h-250-250q-105-3-176-74t-74-176v-500q3-106 74-176t176-74h500q106 3 176 74t74 176v500q-3 106-74 176t-176 74v0z m200-750q-2-86-58-142t-142-58h-500q-86 2-142 58t-58 142v500q2 86 58 142t142 58h500q86-2 142-58t58-142v-500 0z m-733 263q10 3 18 9t15 12 9 17 4 20q0 19-7 32t-23 22q-12 9-33 13t-46 4h-58v-276h75q24 1 44 7t35 15q30 18 29 62 0 16-4 28t-13 18-21 10-24 7v0z m-71 92h10 11q24-1 37-9 3-3 6-10t3-20q0-17-13-29-6-6-13-7t-20-1h-21v76 0z m62-188q-6-6-16-7t-25-2h-21v88h29q50-1 50-46 1-12-3-21t-14-12v0z m158 225h-24-26v-276h147l4 42h-101v234z m213 8q-25 0-46-9t-33-29q-16-18-22-45t-7-63q0-34 7-62t22-46q30-38 79-38 26 0 46 10t33 28q16 19 23 46t7 62-7 62-23 46q-12 19-33 29t-46 9v0z m42-225q-7-13-18-19t-24-6-24 6-18 19q-12 24-12 79t12 79q7 13 18 19t24 6q30 0 43-24t12-80-13-79v0z m217 183q6 0 14 0t10-3q13-6 26-17l24 28q-9 10-18 15t-19 11q-10 3-21 5t-25 3q-15 0-31-3t-27-14-22-20-19-30q-7-16-12-36t-5-43q0-145 112-146 12 0 23 3l23 5q12 4 22 10t19 12v133h-91l4-38h37v-75q-8-6-18-7t-19-1-18 3-15 5q-6 6-11 14t-10 19q-5 26-4 63 0 28 4 48t12 31q16 13 28 19t27 6v0z" horiz-adv-x="1000" />

<glyph glyph-name="list" unicode="&#x43;" d="M343 731v-38-38h657v76h-657z m-343-181h121 122v252h-243v-252 0z m66 181h53 53v-109h-106v109 0z m277-328v-38-38h447v76h-447z m-343-181h121 122v252h-243v-252 0z m66 181h53 53v-110h-106v110 0z m277-363v-38-38h243v76h-243z m-343-142h121 122v252h-243v-252 0z m66 181h53 53v-110h-106v110 0z" horiz-adv-x="1000" />

<glyph glyph-name="calendar" unicode="&#x44;" d="M355 295q6 8 54 64l55 63v55h-305v-67h204l-99-120v-53h41q24 0 43-5t29-14q14-10 19-21t4-29-6-28-21-21q-27-20-68-19-18 0-37 3t-36 11-31 14-28 18l-36-68q16-14 35-22t42-15 45-10 46-3q54-2 95 17 20 11 35 24t24 26q10 18 14 35t5 38q0 28-8 49t-25 37q-28 28-90 41v0z m404 160q-41 27-95 27t-96-28-68-77q-14-27-19-58t-4-65 6-66 17-56q14-27 29-46t39-32q41-26 96-26t95 28 68 76q14 28 19 58t4 64q-1 69-23 123-10 28-27 46t-41 32v0z m-18-319q-28-41-77-41-24 0-42 10t-36 31q-14 21-20 49t-6 70 6 69 20 49q29 41 78 41t77-41q14-20 21-49t7-69-7-70-21-49v0z m122 577h-22-23v137h-90v-137h-455v137h-91v-137h-45q-60-1-98-39t-39-96v-591q1-60 39-98t98-39h726q60 1 98 39t39 98v591q-1 58-39 96t-98 39v0z m91-726q-1-39-26-65t-65-26h-726q-39 1-65 26t-26 65v591q1 38 26 64t65 26h726q39-1 65-26t26-64v-591 0z" horiz-adv-x="1000" />

<glyph glyph-name="card" unicode="&#x45;" d="M904 677h-404-404q-69 0-84-34t-12-104v-374q-3-71 12-106t84-35h761q73-3 108 11t35 81v423q3 69-12 104t-84 34v0z m-858-92q-1 2 6 23t41 23h807q34-3 40-23t6-23q6-8 7-20t1-26h-908v46 0z m0-96h452 452v-46h-904v46 0z m912-373h-2-2q-3-34-23-41t-24-5h-807q-3-2-23 5t-23 41v281h904v-281 0z m-815 188v-23-23h380v46h-380z m0-93v-22-24h284v46h-284z m430 0v-22-24h143v46h-143z" horiz-adv-x="1000" />

<glyph glyph-name="cart" unicode="&#x46;" d="M790 88q-36-1-60-23t-24-58 22-60 58-26q17 0 33 6t28 20q13 10 19 27t6 32q2 36-21 59t-61 23v0z m-445 4q-19 0-34-7t-26-18q-26-27-26-60t26-60q11-12 28-19t32-7q36 1 60 26t26 59q-3 36-27 60t-59 26v0z m644 455q-6 9-14 13t-18 6h-686q-6-1-11 3-5 0-6 2t-1 6q-22 85-39 170-3 13-15 22t-28 10h-160q-11 0-11-11v-63q-1-7 4-8 2-2 3-3t4 0h117q6 1 11-4 3-2 3-4t1-3q18-88 39-174t39-172q10-42 19-83t20-84q3-16 15-27t31-8h559q19-3 33 9t17 30l85 338q0 8-2 18t-9 17v0z m-124-249q-6-15-10-33l-11-34q-1-6-8-7-5-5-11-4h-476q-3 0-7 1t-4 3l-22 82h549v-8 0z m14 108q-2-13-4-14t-18-1h-533q-6-1-10 4t-4 11q-1 10-7 20-3 14-8 27t-7 27h616q-15-37-25-74v0z" horiz-adv-x="1000" />

<glyph glyph-name="gift" unicode="&#x47;" d="M377 850q43-1 76-22t52-54q18 25 45 39t63 14q58-2 97-41t40-97q0-25-9-49t-24-41h260q7 0 15-6t8-17v-204q0-8-6-16t-17-8h-47v-475q-1-7-8-15t-17-8h-810q-8 0-16 6t-9 17v475h-47q-7 0-15 6t-8 18v204q0 6 6 14t17 9h246q-18 22-30 46t-12 54q4 65 46 107t104 44v0z m0-43q-43-1-70-30t-29-70q1-42 30-70t69-29h100v99q-1 41-29 70t-71 30v0z m236-23q-40-1-64-26t-26-64v-90h90q40 0 65 25t24 65-27 64-62 26v0z m335-228h-170-170v-156h340v156 0z m-382 0h-68-68v-156h136v156 0z m-179 0h-340v-156h340v156 0z m495-204h-134-135v-450h269v450 0z m-316 0h-66-66v-450h136v450h-4v0z m-179 0h-135-134v-450h269v450 0z" horiz-adv-x="1000" />

<glyph glyph-name="discount" unicode="&#x48;" d="M546 629v-38-37h130v75h-130z m-305-325v-69-70h71v139h-71z m664 56v-118-118h71v236h-71z m-94 269v-38-37h94v-80h71v155h-165z m-315-704v-38-37h220v75h-220z m409 0h-37-38v-75h146v155h-71v-80z m-593 100h-36-35v-175h145v75h-74v100z m419 175q-12 0-25-4t-20-11q-23-14-31-35-7-12-8-26t-1-29 2-30 7-25q16-24 31-41 22-14 45-14 19 0 36 7t28 23 19 34 6 46q0 23-6 44t-18 35q-12 12-27 19t-38 7v0z m30-156q-8-14-30-14-15 0-31 14-9 16-10 45 1 31 10 46t31 15q14 0 30-16 9-14 10-45-1-29-10-45v0z m5 330h-33-33l-249-384h65z m-220-179q12 14 18 34t6 46q0 22-6 43t-18 36-29 23-36 7-36-7-29-23-18-34-7-45q1-24 7-45t18-36 29-22 36-7q43 0 65 30v0z m-100 80q1 29 10 44t30 15q15 0 30-14 8-16 9-45-1-30-8-46t-31-15q-15 0-30 16-7 7-9 18t-1 27v0z m-200 209q0 8 2 14t8 11l70 50 220-154q31-23 69-17t66 36l-255 175 250 180q-25 30-62 36t-73-16l-215-155-70 50q-4 0-7 6t-3 14q4 11 4 25t-4 25q-5 33-30 55t-60 30q-53 6-91-25t-39-85q1-46 33-77t78-33q29 0 59 15 17 8 26 0l64-45-64-45q-9-8-26 0-15 12-36 15t-44 0q-38-8-62-32t-28-63q-5-54 31-89t94-31q39 5 65 30t35 61q0 7 0 17t-5 22v0z m-109 210q-20 1-32 13t-13 32 13 32 31 13 32-13 14-32q3-19-10-32t-35-13v0z m0-279q-20 0-32 12t-13 32 13 32 31 12 32-12 14-32q3-19-10-32t-35-12v0z" horiz-adv-x="1000" />

<glyph glyph-name="facebook" unicode="&#x49;" d="M0 600q3 106 73 177t177 73h500q106-3 177-73t73-177v-500q-3-106-73-177t-177-73h-500q-106 3-177 73t-73 177v500 0z m250 200q-85-2-142-58t-58-142v-500q2-85 58-142t142-58h500q85 2 142 58t58 142v500q-2 85-58 142t-142 58h-500v0z m344-209q44 29 119 30h1q41-1 81-7l18-3v-158h-71l-25-2q-10-1-18-3l-6-2-3-3q-4-4-7-7t-2-8v-86h128l-18-174h-110v-298h-174v298h-111v174h111l1 95q0 8 2 21t7 31 15 35 24 36 38 31v0z m-45-163v0-128h-111v-90h111v-298h91v298h114l9 90h-123v128q1 21 10 33t14 15l2 2q7 5 12 7t12 4q11 2 23 3l28 3v-3l1-19-1 22h30v80q-29 4-58 5-33-1-57-8t-41-17q-33-21-47-51t-17-52q-1-11-2-18v-6 0z m143 18v0 0 0z" horiz-adv-x="1000" />

<glyph glyph-name="heart" unicode="&#x4a;" d="M4 547q19 106 101 165t187 52q67-7 120-41t81-93l4-7 4 7q40 74 113 110t159 24q80-13 137-62t80-125q18-63 4-126-10-44-28-87t-47-80q-82-119-196-213-41-34-87-66t-93-59q-22-13-46-13t-46 13q-220 125-372 325-27 38-47 81t-32 87q0 27 1 54t3 54v0z" horiz-adv-x="1000" />

<glyph glyph-name="heart-empty" unicode="&#x4b;" d="M497-67q-30-1-55 16-105 58-194 137t-160 179q-29 38-48 80t-30 88q-9 23-10 51t6 55q20 107 105 171t199 54q59-6 108-33t83-72q46 59 115 88t147 17q83-13 142-65t84-130q9-32 11-66t-7-62q-9-47-28-89t-46-79q-41-56-88-108t-103-95q-78-70-172-121-30-17-59-16v0z m-223 773q-81-1-140-50t-73-129v0q-7-46 4-86 17-81 69-145 136-186 336-297 14-8 27-8t27 8q88 48 165 114 52 41 97 89t82 102q24 32 41 69t26 76q5 23 4 50t-8 50q-19 63-67 103t-113 50q-68 10-128-20t-95-90l-7-8q-3-3-9-6t-15-5v0q-6 0-13 3t-10 8l-2 3q-2 2-2 5-27 51-71 79t-97 35h-28v0z m-241-171v0 0 0z" horiz-adv-x="1000" />

<glyph glyph-name="truck" unicode="&#x4c;" d="M1000 360v43 28q-1 50-41 103t-112 57h-155v43q2 3-4 20t-35 19h-517q-19 1-24-6t-5-25v-40h40v32h503v-481h-260q-3 0-5 1l-3 2q-13 27-33 42t-49 15-49-15-33-45v0h-71v56h-40v-56q2-17 15-28t14-12h82q0-33 28-57t54-25q20 0 29 3t18 11v0q16 11 29 27t14 38h335q13-40 39-60t57-22q59 0 86 82v0h57q2-2 15 4t17 35q3 56 4 106t0 105v0z m-696-282q-20 0-33 13t-13 32 13 33 29 14q19-1 33-14t14-33-11-33-32-12v0z m517 0q-18 0-30 13t-12 32 14 33 32 13 31-13 12-33q-1-21-14-33t-33-12v0z m140 85v-3-11h-50q-7 1-8 7-12 27-32 40t-50 13q-52 0-78-53-1-3-6-5t-8-2h-39v399h153q40 0 77-33t41-88v-264 0z m-769 357q12 0 18 7t4 18q0 8-5 15t-17 7h-170q-11 0-17-7t-5-19 5-17 17-7h85q43 4 85 3v0z m22-114q0 10-5 18t-17 7h-142q-11 0-16-7t-6-18 6-18 16-7h142q11 0 17 7t5 18v0z m-22-160q11 0 17 6t5 18-5 18-17 7h-121q-7 0-14-7t-7-18 5-18 16-6h121v0z" horiz-adv-x="1000" />

<glyph glyph-name="instagram" unicode="&#x4d;" d="M800 716q-28 0-47-18t-19-48 19-47 47-19 48 19 18 47-18 48-48 18v0z m-300-99q-112-3-186-77t-77-186q3-112 77-188t186-79q112 3 186 78t77 189q-3 109-77 185t-186 78v0z m0-467q-86 2-142 60t-58 144q3 87 59 143t141 57q84-2 141-59t59-141q-2-84-58-143t-142-61v0z m250 700h-250-250q-105-3-176-74t-74-176v-500q3-106 74-176t176-74h500q106 3 176 74t74 176v500q-3 106-74 176t-176 74v0z m200-750q-2-86-58-142t-142-58h-500q-86 2-142 58t-58 142v500q2 86 58 142t142 58h500q86-2 142-58t58-142v-500 0z" horiz-adv-x="1000" />

<glyph glyph-name="search" unicode="&#x4e;" d="M411 29q-175 5-290 120t-121 291q5 175 121 290t290 120q174-4 290-120t120-290q0-74-24-140t-67-119l247-211q20-18 23-46t-16-49-45-25-49 17l-262 224q-48-30-103-46t-114-16v0z m0 143q113 3 189 78t79 190q-3 113-79 189t-189 78q-114-2-190-78t-78-189q3-114 78-190t190-78v0z" horiz-adv-x="1000" />

<glyph glyph-name="order" unicode="&#x4f;" d="M862 850h-362-361q-49-1-80-32t-33-80v-776q1-47 33-79t80-33h611l225 276v612q-4 49-35 80t-78 32v0z m-112-944v80 81q1 25 18 42t42 17h104l-164-220v0z m168 276h-56-55q-47-1-79-32t-34-80v-168h-555q-27 1-41 16t-16 40v668h836v-444 0z m0 500h-418-418v56q1 26 16 41t41 15h723q26-1 41-17t15-39v-56 0z m-447-388v-28-28h168v56h-168z m0 224v-28-28h387v56h-387z m0-444v-28-28h111v56h-111z m-113 56h-82-82v-168h168v168h-4z m-51-112h-29-28v56h57v-56 0z m51 332h-82-82v-168h168v168h-4z m-51-112h-29-28v56h57v-56 0z m51 336h-82-82v-168h168v168h-4z m-51-112h-29-28v56h57v-56 0z" horiz-adv-x="1000" />

<glyph glyph-name="pinterest" unicode="&#x50;" d="M750 850h-250-250q-105-3-176-74t-74-176v-500q3-106 74-176t176-74h500q106 3 176 74t74 176v500q-3 106-74 176t-176 74v0z m200-750q-2-86-58-142t-142-58h-500q-86 2-142 58t-58 142v500q2 86 58 142t142 58h500q86-2 142-58t58-142v-500 0z m-246 471q-61 62-145 76t-163-18q-104-46-145-150t24-204l38-37q14-8 15-11t-3-19q-5-39-11-83t7-84q10-21 32-32t47-9q25 7 42 26t29 41l19 44q13 29 23 35l29-4q16 0 33 3t33 9q123 56 148 188t-52 229v0z m0-204q-17-86-81-135t-148-3q-3-25-12-52t-22-52q-7-18-28-49t-38-5q-9 18-4 52t8 52q4 28 11 54t14 55q3 8 4 18t4 19q4 17 4 27t-4 27q-6 34 8 68t55 41q45-1 49-39t-7-70q-9-28-13-61t33-35q38 4 57 40t22 68q8 42-6 80t-56 54q-38 13-79 3t-67-40q-22-27-31-62t7-68l11-20q3-8 1-27t-13-27-28-1q-26 13-39 40t-16 56q-9 95 54 156t155 65q98 5 154-63t41-166v0z" horiz-adv-x="1000" />

<glyph glyph-name="security" unicode="&#x51;" d="M346 446q-4-4-34-31l-34-29 159-186 294 285-60 63-226-221z m159 404q-24-9-189-71l-188-72v-401q0-64 29-126t89-124v0q43-42 93-82t102-76l36-29 23-19 24 19 36 29q51 38 102 77t93 81q59 63 88 124t30 126v401l-368 143v0z m289-544q1-44-22-90t-73-96q-40-39-87-77t-95-74l-12-8-13 8v0q-51 36-98 74t-84 77q-50 50-73 96t-22 90v338l290 115 289-111v-342 0z" horiz-adv-x="1000" />

<glyph glyph-name="user" unicode="&#x52;" d="M500 850q-212-6-353-147t-147-353q1-106 42-198t112-160l8-8q67-64 153-98t185-35 185 35 153 98l8 8q72 69 113 160t41 198q-6 212-147 353t-353 147v0z m0-938q-85 0-159 30t-133 83q9 89 88 143t204 57q124-2 202-57t90-143q-60-54-133-83t-159-30v0z m-167 538q2 71 49 118t118 49q70-2 118-49t49-118q-2-71-49-118t-118-48q-70 2-118 48t-49 118v0z m509-370q-23 65-76 113t-132 74q44 31 69 79t27 104q-3 96-68 161t-162 68q-97-3-162-68t-67-161q1-57 26-104t69-79q-78-25-133-74t-75-113q-44 55-69 124t-26 146q4 186 128 309t309 129q186-5 309-129t129-309q-1-78-27-146t-69-124v0z" horiz-adv-x="1000" />

<glyph glyph-name="user-hover" unicode="&#x53;" d="M737 614q-3 99-69 166t-168 70q-100-3-167-70t-69-166q2-101 69-168t167-70q101 3 168 70t69 168v0z m177-604q-12 126-124 204t-290 79q-176-2-287-79t-127-204q85-76 189-118t225-41 225 41 189 118v0z" horiz-adv-x="1000" />

<glyph glyph-name="filter" unicode="&#x54;" d="M314 678v-55-54h686v109h-686z m0-273v-55-54h686v109h-686z m0-273v-54-55h686v109h-686z m-314 382h105 104v218h-209v-218 0z m55 164h51 53v-109h-104v109 0z m-55-219v-109-108h209v217h-209z m0-490h105 104v218h-209v-218 0z m55 163h51 53v-109h-104v109 0z" horiz-adv-x="1000" />

<glyph glyph-name="youtube" unicode="&#x55;" d="M750 850h-250-250q-105-3-176-74t-74-176v-500q3-106 74-176t176-74h500q106 3 176 74t74 176v500q-3 106-74 176t-176 74v0z m200-750q-2-86-58-142t-142-58h-500q-86 2-142 58t-58 142v500q2 86 58 142t142 58h500q86-2 142-58t58-142v-500 0z m-246 480h-217-216q-39 0-68-18t-36-54q-7-24-10-63t-3-95 3-93 10-65q7-38 36-57t68-18h433q48 0 86 25t48 74q3 26 5 59t3 75-3 75-5 59q-11 47-47 71t-87 25v0z m83-355q-3-25-24-40t-59-14h-433q-13 0-24 3t-17 5q-12 6-17 26-4 21-6 57t-3 88 3 88 10 58q0 9 5 14l11 11q7 3 19 5t23 3h433q38 0 59-16t25-38q7-44 8-125-6-81-13-125v0z m-158 175q-9 5-72 38l-74 37q-25 13-49 0-13-7-19-18t-7-24v-154q0-13 7-24t19-17q24-13 49 0l146 75q25 13 25 44t-25 43v0z m-166-121v77 77l145-74-145-80v0z" horiz-adv-x="1000" />

<glyph glyph-name="cotton" unicode="&#x56;" d="M501 850q-66-1-123-29t-94-79h-9q-96-2-161-66t-68-159q1-16 3-29t6-26q-26-37-40-79t-14-87q3-122 84-201t203-83q87 0 162 51v-163q1-23 15-36t36-14 35 14 15 36v163q34-25 76-38t86-13q122 4 203 85t85 199q-1 47-16 92t-43 78q3 13 4 25t0 21q-3 97-68 160t-161 66v0q-38 53-95 83t-121 29v0z m-171-204q1 2 8 13l9 12q22 44 64 68t89 23 88-23 66-64l17-25 29 4h17q61-1 101-40t40-97q0-13-2-23l-5-23-9-25 16-21q26-28 40-62t15-72q-2-83-57-138t-143-57q-16 0-29 2l-30 6q41 16 84 51t87 91l-18 2q-20 1-48 2-42 0-94-9t-98-36q-9 60-38 98t-33 38q-21-40-35-72t-19-57q-44 22-92 30t-87 8h-25q-32-1-48-2l-19-2q45-59 89-93t82-49q-12-3-25-3t-29-1q-84 2-140 57t-60 139q0 35 12 68t34 61l16 21-7 25q-8 25-9 50 1 58 41 97t100 41q13 1 26-5l29-8v0z" horiz-adv-x="1000" />

<glyph glyph-name="invoice" unicode="&#x57;" d="M190 571h-31-31v-441h62v441 0z m102 0h-31-30v-441h61v441 0z m105 0h-32-31v-441h63v441 0z m99 0h-31-31v-441h62v441 0z m105 0h-32-31v-441h63v441 0z m99 0h-31-31v-441h62v441 0z m98 0h-31-31v-441h62v441 0z m88 0h-31-32v-441h63v441 0z m-803 129q-35-1-59-24t-24-55v-540q1-35 24-57t59-23h834q35 1 59 23t24 57v540q-1 33-24 55t-59 24h-834v0z m-20-79q0 7 5 13t15 5h834q9 0 15-5t6-13v-540q0-8-6-14t-15-5h-834q-9 0-15 5t-5 14v540 0z" horiz-adv-x="1000" />

<glyph glyph-name="chat" unicode="&#x58;" d="M64 324h74 73v231q1 36 25 60t59 24h442v148h-673v-463 0z m210-211h248 247q12 0 22-10l157-156v630h-674v-464 0z m696-263q-13 0-23 9l-199 199h-456q-35 1-59 24t-24 59v125h-125q-35 1-59 24t-24 60v417q0 35 24 59t59 24h625q35-1 59-24t24-59v-125h125q35-1 59-25t25-59v-678q-1-9-6-16t-14-12q-5-2-11-2v0z" horiz-adv-x="1000" />

<glyph glyph-name="check" unicode="&#x59;" d="M500 850q-74 0-145-21t-133-63-109-99-75-126-36-142 8-147 49-138 88-118 117-87 138-49 147-8 142 36 126 75 99 109 63 133 21 145q0 101-38 191t-109 162-162 109-191 38v0z m0-918q-62 0-122 18t-110 52-91 82-63 106-30 119 5 123 42 115 73 99 99 73 116 42 122 6 119-31 106-63 82-91 52-110 18-122q0-84-32-160t-91-135-135-91-160-32v0z m200 564q-15-17-127-129l-126-128-147 149q-12 12-28 12t-29-11-12-29 11-29l177-179q4-4 9-6 2-2 4-3 8-3 15-3t16 3q3 2 5 4 5 2 8 5l283 286q6 6 9 13t4 16-3 17-9 14-14 8-16 3-16-4-14-9v0z" horiz-adv-x="1000" />

<glyph glyph-name="copy" unicode="&#x5a;" d="M533 225h-158-158q-7 0-12-2t-9-6-6-9-2-12 2-12 6-9 9-6 12-3h312q6 0 12 3t9 6 6 9 3 12-3 12-6 9-8 6-9 2v0z m430 588q-17 18-40 28t-48 9h-500q-25 0-48-9t-39-29-27-40-11-47v-62h-125q-25 0-48-10t-39-28-27-41-11-46v-563q0-25 9-48t28-40q17-18 40-28t48-9h500q25 0 48 9t40 28q37 38 37 88v63h125q25 0 48 9t40 28q37 38 37 88v562q0 25-9 48t-28 40v0z m-275-838q0-13-5-24t-12-22q-10-9-22-13t-24-4h-500q-13 0-24 5t-22 12q-9 10-13 22t-3 24v563q0 12 4 24t12 21q10 7 22 12t24 5h500q13 0 24-5t22-12q9-9 13-21t4-24v-563 0z m250 188q0-13-5-25t-12-21q-10-7-22-12t-24-5h-125v438q0 25-9 48t-28 39q-38 38-88 38h-312v62q0 13 4 24t12 22q10 9 22 13t24 4h500q13 0 24-5t22-12q9-10 13-22t4-24v-562 0z m-405-63h-158-158q-7 0-12-2t-9-6-6-9-2-12 2-12 6-9 9-6 12-3h312q6 0 12 3t9 6 6 9 3 12-3 12-6 9-8 6-9 2v0z m0 250h-158-158q-7 0-12-2t-9-6-6-9-2-12 2-12 6-9 9-6 12-3h312q6 0 12 3t9 6 6 9 3 12-3 12-6 9-8 6-9 2v0z m0 125h-158-158q-7 0-12-2t-9-6-6-9-2-12 2-12 6-9 9-6 12-3h312q6 0 12 3t9 6 6 9 3 12-3 12-6 9-8 6-9 2v0z" horiz-adv-x="1000" />

<glyph glyph-name="two-cards" unicode="&#x61;" d="M147 646h-26-26v-356h52v356 0z m191-451q-12 0-20-8t-7-19 7-19 20-9h150q12 1 19 9t8 19-8 19-19 8h-150v0z m233 0q-10 0-18-8t-8-19 8-19 18-9h68q11 1 19 9t7 19-7 19-19 8h-68v0z m-233-85q-12-1-20-9t-7-19 7-19 20-8h100q11 0 19 8t8 19-8 19-19 9h-100v0z m-273 638q-28 0-46-19t-19-47v-428q1-28 19-47t46-19h145v-157q1-34 23-56t54-23h636q33 0 55 23t22 56v411q-1 33-22 56t-55 23h-180v161q0 28-18 47t-46 19h-614v0z m-12-66q0 6 3 9t9 4h614q5 0 8-4t4-9v-161h-32v125h-52v-125h-5v125h-53v-125h-39v125h-52v-125h-34v125h-52v-125h-24v125h-53v-125l-11-1v126h-53v-150q-9-11-15-25v175h-53v-356h47v-48h-145q-5 0-9 3t-3 9v428 0z m211-240q1 11 7 17t16 7h636q10-1 17-7t6-17v-41h-682v41 0z m0-144v24 24h682v-48h-682v0z m0-267v106 107h682v-213q0-11-6-17t-17-8h-636q-10 1-16 8t-7 17v0z" horiz-adv-x="1000" />

<glyph glyph-name="close" unicode="&#x62;" d="M0-32q55 55 441 441l442 441 117-117-883-883-117 118v0z m117 882l442-441 441-442-117-117-883 883 117 117v0z" horiz-adv-x="1000" />

<glyph glyph-name="close-circle" unicode="&#x63;" d="M500 850q-74 0-145-21t-133-63-109-99-75-126-36-142 8-147 49-138 88-118 117-87 138-49 147-8 142 36 126 75 99 109 63 133 21 145q0 101-38 191t-109 162-162 109-191 38v0z m0-918q-62 0-122 18t-110 52-91 82-63 106-30 119 5 123 42 115 73 99 99 73 116 42 122 6 119-31 106-63 82-91 52-110 18-122q0-84-32-160t-91-135-135-91-160-32v0z m-208 259l184 183 183 184 49-49-367-367-49 49v0z m49 367l183-184 184-183-49-49-367 367 49 49v0z" horiz-adv-x="1000" />

<glyph glyph-name="fullscreen" unicode="&#x64;" d="M154 465h-77-77v385h385v-154h-231v-231 0z m-154-230h77 77v-231h231v-154h-385v385 0z m846-231h-115-116v-154h385v385h-154v-231 0z m-231 692v77 77h385v-385h-154v231h-231v0z" horiz-adv-x="1000" />

<glyph glyph-name="home" unicode="&#x65;" d="M555 283q37-1 61-26t26-61v-258q0-8 5-12t11-5h156q6 0 11 5t4 12v495q0 7-5 11l-309 310q-5 5-12 5t-11-5l-310-310q-4-4-4-11v-495q0-8 4-12t11-5h156q7 0 11 5t5 12v258q0 37 25 61t62 26h103v0z m103-432q-37 0-61 25t-26 62v258q0 7-5 11t-11 5h-103q-8-1-12-5t-4-11v-258q-1-37-26-62t-61-25h-156q-37 0-61 25t-26 62v392q0 10-9 14-3 2-6 2-7 0-12-5l-15-15q-12-13-28-13-5 0-9 1-20 6-25 26t11 34l466 466q10 10 24 10t25-10l464-465q9-9 9-23t-11-23-24-11-24 9l-14 14q-5 5-12 5-3 0-6-2-10-4-10-14v-392q-1-37-25-62t-61-25h-156v0z" horiz-adv-x="1000" />

<glyph glyph-name="mail" unicode="&#x66;" d="M107 696q-44-2-75-32t-32-76v-476q1-45 32-75t75-32h786q45 1 75 32t32 75v476q-1 45-32 76t-75 32h-786v0z m7-73h385 386l-363-324q-23-18-43 0l-365 324v0z m-43-55q16-14 123-109l122-109-245-234v452 0z m858 0v-227-226l-244 235 244 218v0z m-298-267q15-13 117-112l116-112h-728l234 223 63-54q30-27 68-27t69 27l61 55v0z" horiz-adv-x="1000" />

<glyph glyph-name="menu" unicode="&#x67;" d="M0 737v-69-68h1000v137h-1000z m0-319v-68-68h1000v136h-1000z m0-318v-68-68h1000v136h-1000z" horiz-adv-x="1000" />

<glyph glyph-name="mic" unicode="&#x68;" d="M657 376q0 20 1 159v157q-2 67-46 112t-112 46q-66-2-111-46t-46-112v-316q1-67 46-111t111-47q67 2 112 47t45 111v0z m122 0q-4-120-85-193t-194-75q-112 2-193 75t-85 193h-90q4-137 93-234t222-119v-173h106v173q133 21 222 119t94 234h-90v0z" horiz-adv-x="1000" />

<glyph glyph-name="navigation" unicode="&#x69;" d="M1000 350q-1-33-22-56t-53-23h-668l266-284q22-25 22-56t-22-57-53-24-53 23l-394 421q-23 24-23 57t23 56l394 421q23 22 53 22t53-24 22-56-22-56l-266-284h668q32-1 53-23t22-57v0z" horiz-adv-x="1000" />

<glyph glyph-name="nf" unicode="&#x6a;" d="M659 805v1h-1l-28 33q-5 5-11 8t-13 3h-402q-39-1-67-28-14-15-21-32t-7-38v-804q0-20 7-38t21-32q28-27 67-28h592q40 1 67 29t29 69v576q0 13-8 21l-225 260v0z m169-857q0-14-9-23t-23-10h-592q-13 0-22 10t-9 23v804q0 14 9 23t22 10h388l4-4v-202q0-28 18-47t45-19h168l1-2v-563 0z m-148 434h-200-202q-13 0-23-9t-9-23 9-23 23-9h402q13 0 23 9t9 23-9 23-23 9v0z m0-146h-200-202q-13 0-23-10t-9-23 9-22 23-11h402q13 0 23 10t9 23-9 23-23 10v0z m0-147h-200-202q-13 0-23-9t-9-23 9-23 23-10h402q13 0 23 10t9 23-9 23-23 9v0z m-402 413h95 96q12 0 22 10t9 23-9 23-22 10h-191q-13-1-23-10t-9-23 9-23 23-10v0z" horiz-adv-x="1000" />

<glyph glyph-name="ordination" unicode="&#x6b;" d="M248 683q19-1 28-13t10-30v-480l143 147q11 11 29 11t27-11 11-28-11-29l-209-218q-6-14-28-14-10 0-16 3t-12 11l-209 218q-11 12-11 29t11 28 28 11 28-11l143-147v480q1 18 12 30t26 13v0z m504-665q-19 0-28 12t-10 30v480l-143-147q-11-11-28-11t-28 12-11 27 11 29l209 218q7 15 28 15 10 0 16-4t12-11l209-218q11-12 11-29t-11-27-28-12-28 11l-143 147v-485q-1-15-12-26t-26-11v0z" horiz-adv-x="1000" />

<glyph glyph-name="pin" unicode="&#x6c;" d="M500 657q-79-2-132-55t-55-133q2-80 55-133t132-54q80 2 133 54t56 133q-2 79-55 133t-134 55v0z m-90-99q18 18 41 27t50 10 49-10 41-27 28-41 10-50-10-49-28-41-41-27-49-11-50 11-41 27-28 41-10 49 10 50 28 41v0z m90 292q-162-4-269-112t-111-271q0-41 16-88t43-97 59-100 68-98 68-87 59-71 42-48l15-17 2 1 8 7-10-8 10-11 11 11-11 8 9-7 2-1 15 17q16 17 42 48t59 70 68 88 68 98 59 100 43 97 16 88q-4 163-111 271t-270 112v0z m-321-381q4 137 94 228t227 95q137-3 228-95t94-230q0-52-44-141t-130-206q-42-58-82-105t-66-76q-26 29-65 77t-82 106v0q-86 116-130 205t-44 142v0z" horiz-adv-x="1000" />

<glyph glyph-name="print" unicode="&#x6d;" d="M934 612h-56-57v157q-1 25-18 41t-43 18h-528q-25-1-43-18t-19-41v-153h-107q-27-4-44-21t-19-42v-348q1-26 19-42t44-16h111v-216q1-25 19-41t43-17h528q25 0 43 17t19 41v216h112q26 0 43 16t19 42v344q-4 29-22 45t-44 18v0z m-685 149h249 249v-145h-498v145 0z m498-809h-249-249v307h498v-307 0z m166 261h-50-49v108h-648v-108h-100v324h847v-324 0z m-560-195h79 79q15 0 26 9t11 24q-1 13-11 23t-26 10h-158q-16 0-27-8t-11-25q0-12 11-22t27-11v0z m0 112h139 139q16 0 26 9t11 25q0 12-11 22t-26 11h-278q-16 0-27-9t-11-24q0-13 11-23t27-11v0z" horiz-adv-x="1000" />

<glyph glyph-name="logout" unicode="&#x6e;" d="M705 282q-13-1-21-9t-9-18v-189q-1-6-6-10t-13-4h-155v581q0 22-16 40t-39 27l-240 75h450q8 0 13-4t6-10v-189q0-12 9-19t21-7 22 8 8 18v189q0 25-18 44-12 11-28 17t-34 7h-631q-1 0-3-1-1 0-2-1t-2-1-2-2l-3-1-1-2q-1 0-2-2t-2-3l-1-1-3-5q0-2-1-3t-1-4v-783q-1-1 1-4 0-1 1-3l3-5 4-4 2-1 3-1 2-1t3-2q-12 4 48-15l344-109q14-3 27-3 19-1 34 8 28 16 28 47v71h155q34 1 57 21t23 47v189q0 10-6 18-11 8-25 9v0z m-266 351v-353-356q-2 0-4 2l-372 117v720l362-113q5-3 9-8t5-9v0z m548-177l-70 70-70 70q-11 8-23 8t-21-9-9-21 9-22l98-96h-272q-13 0-22-9t-8-22 8-21 22-9h270l-97-96q-10-9-10-22t10-21 21-8 22 8l142 141q13 12 14 29t-14 30v0z" horiz-adv-x="1000" />

<glyph glyph-name="view" unicode="&#x6f;" d="M501 431q-16 0-26-10t-10-26 10-26 26-10q7-1 12-6t5-11q0-15 10-26t26-10 26 10 11 26q-1 37-27 63t-63 26v0z m8 95q-76-1-128-52t-53-128q2-77 53-127t128-53q77 2 128 53t53 127q-1 76-53 127t-128 53v0z m-108-180q1 45 32 75t76 33q46-2 76-33t32-75q-2-45-32-75t-76-31q-45 1-76 31t-32 75v0z m99 316q-142-1-268-76t-225-215q-6-10-6-21t6-21q99-140 225-215t269-74 268 74 225 215q6 9 7 21t-8 21q-97 141-224 215t-269 76v0z m0-550q-117 1-224 61t-193 177q86 116 193 177t225 61 224-61 193-177q-86-116-193-177t-225-61v0z" horiz-adv-x="1000" />

<glyph glyph-name="sendmail" unicode="&#x70;" d="M697 401q-1 10-8 17t-18 9h-347q-9-1-17-9t-8-17 8-18 17-9h347q10 1 18 9t8 18v0z m-373 78h174 173q10 0 18 8t7 18-7 18-18 8h-347q-9 0-17-8t-8-18 8-18 17-8v0z m633 48q-6 4-48 34l-48 34v39q-1 34-23 58t-55 25h-82v0l-155 116q-23 17-48 17t-48-17l-147-112q-3 0-4-2v-2h-87q-33-1-55-23t-23-60v-39l-91-68q-20-14-31-35t-12-48v-502q1-37 26-64t65-27h818q40 1 65 28t26 68v502q-4 22-15 43t-28 35v0z m-480 255q19 12 39 0l90-65h-225l96 65v0z m-290-148q0 10 5 16t16 7h575q10-1 16-7t7-16v-303l-157-138-108 96q-20 19-47 19t-48-19l-99-96-157 142v299h-3z m-118-155q4 3 33 23l32 25v-148l-77 74q0 19 12 26v0z m-12-546q-1 4-3 7t-2 7v432l247-225-242-221v0z m51-25q24 20 186 169l187 168q12 13 26 0l372-337h-771v0z m832 39q0-7-4-14l-244 221 248 225v-432 0z m-79 436v72 72 0 0 0l66-48q6-4 10-12l6-14-82-70v0z" horiz-adv-x="1000" />

<glyph glyph-name="arrow-full-bottom" unicode="&#x71;" d="M1000 600l-250-250-250-250-500 500h1000v0z" horiz-adv-x="1000" />

<glyph glyph-name="arrow-full-left" unicode="&#x72;" d="M750 850l-250-250-250-250 500-500v1000 0z" horiz-adv-x="1000" />

<glyph glyph-name="arrow-full-right" unicode="&#x73;" d="M250 850l250-250 250-250-500-500v1000 0z" horiz-adv-x="1000" />

<glyph glyph-name="arrow-full-top" unicode="&#x74;" d="M0 100l250 250 250 250 500-500h-1000v0z" horiz-adv-x="1000" />

<glyph glyph-name="logo-horizontal-old" unicode="&#x75;" d="M79 331q-7-1-14-5 0 33-3 46-13 28-39 19t-22-37q7-19 23-21t29 9l1-22q-38-28-40-60t21-32q20 6 26 34t4 51q8 4 18 7 5 3 3 8t-7 3v0z m-65 27q-3 9 4 16t15 7q14-1 17-12 2-17-14-22t-22 11v0z m34-96q-2-9-9-18t-13 6q-3 10 4 25t24 29q0-24-6-42v0z m131 139q10 0 19 0t19-1q6-1 7 4t-3 8q-11 3-22 2l-20-1q-7-1-7-7t7-5v0z m166-20q-6-5-10-7t-13-1q-5 8-13 13t-18 2-16-9-6-18v-5-1q-16-14-30-6t-14 17q0 13-10 21t-21 6-19-9q-13-11-10-28v-1q-8-9-17-10-13 1-17 13l-6 18q-2 3-7 4t-11 2-9 3-7 1-4-5q-2-6-6-13t-8-13 0-9 9 1 8 12 7 13q4-1 9-2l8-1 1-2q2-13 10-23t22-10 24 10q9-10 21-10t23 8q3 3 5 7 9-12 24-15t30 10q12-13 30-9t21 26q8 0 14 2t14 9q3 4 0 8t-8 1v0z m-139-29q-6-6-14-5t-12 6q-7 12 4 22t23 3q6-5 5-12t-6-14v0z m87-6q-12 3-12 15t13 15q7 1 13-3t6-12-6-11-14-4v0z m264 9q-9-9-20-9t-18 6q6 9 8 26-2 23-18 23t-20-20q1-17 13-30-10-8-21-7t-18 10q18 21 21 51 2 20-3 33t-16 15q-24-2-28-36t9-62q-7-7-16-9t-15 5-1 16 17 9q6 2 5 8t-6 5q-18-3-25-16t-1-28q5-10 19-11t31 11q10-14 26-14t31 11q12-8 26-9 18 1 28 14 3 5 0 8t-8 0v0z m-101 11q-4 7-6 17t-2 14q1 39 13 43t11-33q-1-13-6-23t-10-18v0z m59 13q0-9-5-18-14 21-6 27t11-9v0z m175-48q-6-1-12-5-1 33-5 46-12 28-38 19t-22-37q7-19 23-21t28 9l1-22q-38-28-39-60t22-32q18 6 24 34t6 51q7 4 16 7 6 3 5 8t-9 3v0z m-65 27q-2 9 4 16t17 7q12-1 16-12 2-17-14-22t-23 11v0z m35-96q-3-9-10-18t-12 6q-2 10 4 25t23 29q0-24-5-42v0z m329 93q-8-9-18-9t-20 6q7 9 9 26-1 23-18 23t-19-20q0-16 12-29-11-8-20-5t-9 19l-1 60h39q6 1 7 7t-7 5l-38 1v27q-1 6-6 6t-6-6v-27h-20q-6-1-6-6t6-6h20v-58-14q-8-9-18-9t-17 7-11 16q-9 10-20 12t-21-6q-6 9-18 10t-22-9l-18-20-1-2q-8-9-18-8t-19 6q7 9 9 26-2 23-19 23t-19-20q1-19 15-33t33-15q17 1 28 14l14 17q6 9 13 9t9-6 4-12v-13q1-6 6-6t7 6v21q3 4 8 6t12-1q4-3 8-9l7-9q11-14 26-16t27 9q8-10 20-9t24 9q13-9 28-10 17 1 27 14 4 5 0 8t-9 0v0z m-287 6q-13 21-5 27t10-9q0-9-5-18v0z m246 18q-1-9-6-18-13 21-4 27t10-9v0z" horiz-adv-x="1000" />

<glyph glyph-name="logo-vertical-old" unicode="&#x76;" d="M223 380q-20-7-38-15-2 92-11 127-35 81-109 56t-61-104q20-52 65-58t79 23l3-31 1-32q-107-77-111-168t61-89q52 16 69 94t15 144q23 12 48 20 16 7 11 21t-22 12v0z m-186 75q-6 23 13 44t45 21q37-4 47-37 6-46-39-61t-66 33v0z m99-270q-7-23-27-52t-35 19q-7 28 12 71t66 81q-1-34-4-65t-12-54v0z m368 390q27 2 54 3t53-6q17-2 21 12t-11 21q-30 8-59 7t-59-2q-17-4-16-19t17-16v0z m413-114q23 1 41 9t37 25q11 10 1 22t-24 4q-17-15-30-21t-34-5q-12 24-35 36t-51 9q-29-6-47-27t-17-52q0-6 1-12l-1-2q-44-40-83-19t-41 49q1 17-7 33t-21 27q-28 20-58 17t-54-25q-16-17-24-38t-3-42l-1-2q-12-13-23-21t-26-8q-35 3-46 36l-16 51q-6 11-18 11-16 2-33 6t-29 11q-6 4-16 2-8-4-11-13-6-19-17-40t-24-35q-10-15 1-25t23 2 25 33 19 38q9-4 25-7l25-5 1-5q8-37 28-64t60-29q22 1 39 9t30 21q26-28 61-28t63 24q8 7 14 17 27-31 69-39t84 26q13-15 30-22t37-5v-30h-25q-7-1-7-8t7-8h25v-73q0-11 1-18-11-10-25-10t-21 8-15 19q-11 14-25 16t-26-7q-8 13-23 13t-28-11l-22-26q-1 0-2-2-8-10-22-11t-25 8q4 5 8 14t4 21q-2 27-23 28t-25-25q1-25 19-42t42-19q21 1 34 16 2 1 2 2l17 19q8 11 18 12 8 0 11-6t5-17v-15q1-8 8-9t7 9v26q4 5 11 7t16-1q5-4 10-11l8-11q15-18 34-20t35 12q9-12 25-12t31 11q15-11 35-12 21 2 35 18 5 5 0 10t-11-1q-11-12-24-12t-25 8q4 5 7 14t5 21q-2 27-24 28t-24-25q0-22 15-38-13-9-25-5t-12 22l-1 78h50q8 1 8 8t-8 8l-50 1v30q26 6 42 24t19 47v0z m-335-25q-17-17-40-15t-35 19q-10 16-7 33t19 31 33 16 32-10q15-13 15-35t-17-39v0z m16-177q-18 28-7 34t13-10q0-12-6-24v0z m313 24q-1-12-7-24-17 28-6 34t13-10v0z m-86 138q-32 9-35 41 0 17 10 29t28 15q21 3 36-9t16-34-16-33-39-9v0z m-413-169q-11-12-24-12t-25 8q4 5 8 14t3 21q-2 27-23 28t-25-25q1-22 16-38-13-10-27-10t-23 12q12 14 19 31t9 35q2 25-4 42t-21 18q-28-2-34-44t12-80q-10-7-22-10t-19 6-1 19 21 13q8 1 7 8t-8 6q-23-3-33-19t0-35q7-13 24-15t38 15q14-18 34-18t40 15q15-12 34-12 21 1 35 17 5 6-1 11t-10-1v0z m-129 13q-5 11-7 22t-2 18q1 50 17 55t13-43q-1-16-7-29t-14-23v0z m69-6q-17 28-6 34t12-10q-1-12-6-24v0z m231-37q-9-4-17-7-1 42-5 58-16 37-49 25t-28-48q9-23 29-25t37 10l1-14v-15q-49-35-51-76t27-40q25 7 32 42t7 65q10 6 22 9 7 4 5 11t-10 5v0z m-84 33q-3 11 6 21t20 10q17-2 22-18 2-20-18-27t-30 14v0z m45-122q-3-10-13-23t-16 9q-3 12 6 32t30 37q-1-32-7-55v0z" horiz-adv-x="1000" />

<glyph glyph-name="video" unicode="&#x77;" d="M941 651q-31 27-73 33-92 10-184 12t-184 2-184-2-183-12q-43-6-74-33t-41-70q-13-56-16-115t-3-115 3-116 16-114q10-43 41-71t73-33q92-10 184-12t184-2 184 2 183 12q43 6 74 33t41 71q13 55 16 114t2 115v2q0 58-2 116t-16 113q-9 42-41 70v0 0z m-552-469v168 188l334-188-334-186v18 0 0z" horiz-adv-x="1000" />

<glyph glyph-name="pack" unicode="&#x78;" d="M1001 520q-1 1-1 2v2l-2 8-4 6-5 5-474 270q-16 8-31 0l-467-268-7-5-4-5-4-11-1-343q0-16 15-25l470-269q8-4 16-3h4l7 2 471 270q15 9 16 24l1 340v0z m-502 234q12-6 89-50l89-50-410-234-177 100 409 234v0z m-27-791q-26 15-206 118l-206 117 1 272 412-234-1-273v0z m31 323q-12 6-89 50l-89 50 411 234 176-100-409-234v0z m437-88q-25-15-205-117l-204-118 1 273 409 233-1-271v0z m-505-210q-12 6-95 54l-94 55v127l189-109v-127 0z" horiz-adv-x="1000" />

<glyph glyph-name="send" unicode="&#x79;" d="M572 840h-72-72q-11-1-18-8t-8-18v-140h-87q-8 0-15-4t-9-11-2-15 6-13l186-207q3-4 9-6t11-3 10 3 9 6l185 207q5 6 6 13t-2 15-9 11-14 4h-88v141q0 10-8 17t-18 8v0z m57-217q-8-9-64-72l-65-72-129 144h57q11 0 18 8t7 18v140h94v-140q0-11 7-18t18-8l57 0v0z m237-275q-4 5-10 8t-11 4h-690q-6 0-11-4t-10-8l-130-210q-4-6-4-13t3-12 10-10 12-3h113v-161q1-32 24-55t55-23h566q32 0 55 23t24 55v161h113q6 0 12 3t10 10 3 12-4 13l-130 210v0z m-795-197q6 10 49 79l50 79h284l-98-158h-285v0z m404-240h-129-129q-12 0-20 9t-8 19v161h181q6 0 12 3t10 9l83 133v-334 0z m337 28q-1-11-9-19t-20-9h-258v334l83-133q4-6 10-10t12-3h182v-160 0z m-167 212q-6 10-50 79l-49 79h284l99-158h-284v0z m-433 492q0 5-2 10t-6 8-8 5-9 2h-58q-11 0-18-7t-7-18 7-18 18-7h58q4 0 9 2t8 5 6 8 2 10v0z m41 137l-20 19-20 21q-8 8-19 8t-18-8-7-18 8-18l40-40q8-8 18-8t18 7 8 18-8 19v0z m-40-314q3 2 20 21l21 20q3 3 5 8t2 10-2 10-6 8-7 5-10 2-10-2-8-5l-41-41q-4-4-6-8t-2-10q1-11 8-18t18-8 18 8v0z m684 177q0 11-8 18t-18 7h-57q-11 0-19-7t-7-18 7-18 19-7h57q10 0 18 7t8 18v0z m-151-137q3-2 21-20l20-21q8-7 19-7t18 8 7 18-8 17l-41 41q-7 8-17 8t-18-8-8-18 7-18v0z m36 238q3 2 21 19l20 21q4 4 7 8t2 11-2 9-6 9-9 6-10 1-10-2-8-6l-41-41q-7-8-7-18t8-18 17-8 18 8v1 0z" horiz-adv-x="1000" />

<glyph glyph-name="brasil" unicode="&#x7a;" d="M199 766l-1 1-1 2 2-3-2-10 2 10v0z m774-234q0 1 1 2l2 1-1 11-3 2-1 6-9 19v7l-1 7-16 7-8-1-7-3-5 7-5 1-6 6-7 4-5 1-10 11-9 12-4 1-6 6h-6l-14 10h-7l-7 4-5-3h-7l-5 2-4-2-2-3-9 8-1-3-3 3-1-3v-3l-4 3-1 3-3 1 1-3h-1l-8 2h-2l-6 1-13 7-5-1v-1l1-3-1-1-3 1-1-1-1-2-5-2-1-3-1-5-4 8-3-1 1-5-4-8v-7l-2 7 2 6-1 6 2 8 3 2-2 1-4 1 5 5-7 7-3 6h-4l-5 1-3-5-3-1-2 3-3 2-1 3-2 3-4-1-2 3-4 1-2-2v2l-2 2-2 3-2-1-6 2-7 4h-2l-2-2-4 3h-3l-1-3h-2l-2 3h-5l-5-3-3-4 1-3-5-6-5-3v2l-3 3-1-1v4l7 7v6l2 3 1 3-7 2-6 4h-5l-7-4-6-1-8 4-9 1-7-8 1-1 2-2 1-2-3-1-2-1-2-4-1 4h-2l-6-2-6-8-7-8 6 8-1 5 2 6h-2l-5-4-4-12-4-3 4 8v6l8 10 2 7 4 5 10 6 3 2 5 7 12 12v2l2 1-2 3 1 4 1 1v5l-4 3h-5l-1-2-3 4-9 23-5 6-3 10v5l-1 5-2 2-1 5-3 6-1-1v-4l-2-3-5-3-15-20v-4l-4-9-7-13-5-1-2-2-1-4-5-3-2 1v6l-2 1v2h-3l-4-1-2-3-5 1-3 4v2l-1 2-2 6-4 1-5 4-6 1-4-2-10-1-6 2-5-3v-5l4-4 4-9-1-1-5-1-6 2-1 1h-3v0h-8-3l-2 2-7-1-5-2-3-8-10 1-6-2v-2l-4-4-5-1 0 2-4-1-3-3-3 1-10 8-4 4v4l-10 10v5l1 3-2 3 1 4 2 3v5l4 8 1 7 5 6v2h-5l-4 7h-5l-5 2 6 7v6l-4 6h-5l-3-2-2 3h-2l1-5-3-6-13-8-7-1-11-5-4 2h-7l-8-8-8-2-2 2-19-2-7 4-8 1-7 2 3-6 5-2 5-5 2-4-7-11 3-5-2-7 12-4 8 1 6-2 1-5-6-2-11-3-4-4-2-7-13-6-4-4-9-6-4-7-11-1-5 1-3 2 2 2 14 3-14-3-2-2-17 11h-5v6l-1 6-4 5-1 4-7-2-5-5-3-1-3 3h-5l-3-4h-27l-1-8 2-5 9-2 4-7-3-3 3-3-1-4-6 4-17-6 1-14 4-5 9-7 7-10-1-12-18-64 1-3-3-3-5 1v2l-5 4-1-1h-5l-2 1-2-4-17-5-13-3-2-3-3-1-5-5-10-6v-6l-2-3 1-4-7-7 3-8 2-5-4-4h-4l-4-2-1 5 1-5-3-2v-5l-3-2 2-3-1-6-2-5 2-4-1-3 6-7 13-19-7-8 16 1 7-1 4-8 2-7 23-1 11 10 8 5 2-3-1-5-2-2v-9l2-20 2-3 11 2 8 1 3-1 22-1 7 4h4l5 5h7l7 2 4 10 11 8 8 1 8 4h5l5-4 5 4 3-3-1-5 3-9-4-7 3-11-2-5 4-9 6-3 2-7 13-7 6-5 2 2 9 3 9-9 7 2 8-10 4 1 17-6 1-8 5-1 7-4 14 2 9-5 3-4-2-12 2-9-3-6 10-15-1-11 43-1 2-16-1-9 13-3 13-23 1-12-12-23 1-4-4-5 2-2-1-6 6-4v-7l5-7-2-15 1-7-2-5 2-4h9l4-1h11l7-2 12 4 5-4 5-1 8-33 4-9 4-1 10 5 6-2 4-3 2-1-1-4-1-23-2-4v-3l-1-5 4 3 11-2v-5l5-10-1-9 2-17-1-4h-5l-6-3-1-2-4-3 0 1-11-7-2-3-3-1-10-8-3-1v-6l-3-1-3 1-7-9-2-4v-5l-3-2-7-12-4-3-4-7v-3l-4-2-1-2h4l2-2 13 4 5-3 5-8 5-2 3-7 6-10h3l4 5h3l6-9 6-3 5-2 6-4v-7l5 1 10-5 12-16 5-4-1-7-4-5 3-10 4-6 10 8 3 7 4 17 4 12 1 2-5 9 1 5 4 1v3l4 4v4l3-2 3-1 4 5 1 5 1 2 1 6 1 2h2l2 5-2 3-2 3v7l-1 2 1-1 3-6 6-5h3l2 1 2-2v-4h-2l-2-9-6-10h-5l-1-6-1-4-2 1-5-3-3-2-1-3h-4l-2-2v-3l5-2 15 12 8 9 12 20 4 10 4 12 12 21 10 12 2 4-1 2v3l3 1 1 5 4 3-1 4 1 3-4 3 1 5-5 7v3l1 2-5 18 2 2 6 1-1 4-3 2 6 2v5l-6 2 5 2 3 3 2-1 8 7 5 3v2l6 6 7 5 10 12 9 1 10 8h5l2-2 4-1v3l4 6 11 7 4 1v2l-3 2-3 1-2 3 4 1 7 4 3-2 5 1 2 2h5v-2l-6-3-7-2-1-1 2-2 20 8-1 2 3 3 3-1-1-2 1-5 7-1 4 3 15-1 4 3v3l0 1 0 2 11 8 9 2 5 3 2 3-2 2-4 10 3 6 4 5v4l7 5 1 4-2 1 7 12 9 11v5l-2 15-2 3 3 9 3 4v3l8 6 1 3-2 9 4 10-2 9 2 6v4l2 9-3 33v6l2 5v3l-2-2-4 3v2l4 6-1 6 1 3 3 1 1 6-4 6-6 3 1 1 1 2 2-3 7-4 1 6h4l1-3 3-2-3-3-3-3-1-3h2l5 4 7 4 7 11 4 10 1 6 3 2 7 16 13 8 2 5 4 1 1 5 11 10 13 16 6 13 2 6 3 4v4l-4 5 2 5v0z m-383 139h2 2l4 3 5 1 5-1h-2l-2-1-3-3-7-2-4 3v0z m38 5l-2-3-2-2-2-7-2-6-6-8 1-8-1-10-1 6-4 5v5l4 4 4 3-1 7 2 5v3h-3l-6-2h-1l4 4-1 2h2l3 3v0l3-1v3l3-2 4 2h6l1-1-5-2v0z" horiz-adv-x="1000" />
</font>
</defs>
</svg>
